<?xml version="1.0" encoding="iso-8859-1"?>
<!-- Generator: Adobe Illustrator 19.0.0, SVG Export Plug-In . SVG Version: 6.00 Build 0)  -->
<svg xmlns="http://www.w3.org/2000/svg" xmlns:xlink="http://www.w3.org/1999/xlink" version="1.1" id="Layer_1" x="0px" y="0px" viewBox="0 0 508.149 508.149" style="enable-background:new 0 0 508.149 508.149;" xml:space="preserve" width="512" height="512">
<g>
	<g>
		<g id="XMLID_104_">
			<g>
				<polygon style="fill:#FFE475;" points="364.999,349.47 364.999,460.827 158.195,460.827 158.195,349.47 158.195,246.068       245.689,246.068 245.689,285.838 364.999,285.838     "/>
				<path style="fill:#8CE0FF;" d="M158.195,349.47H94.563c-48.36,0-87.494-39.134-87.494-87.494s39.134-87.494,87.494-87.494      c14.635,0,28.396,3.659,40.486,9.943c7-76.915,71.666-137.207,150.41-137.207c83.438,0,151.126,67.689,151.126,151.126      c0,2.784-0.239,5.568-0.398,8.352c35.952,3.738,64.03,34.202,64.03,71.188c0,39.531-32.055,71.586-71.586,71.586h-63.632      v-63.632h-119.31v-39.77h-87.494V349.47z"/>
				<g>
					<path style="fill:#00ACF0;" d="M86.609,261.976c0-34.016,19.4-63.398,47.715-77.877c-11.919-6.063-25.408-9.617-39.761-9.617       c-48.36,0-87.494,39.134-87.494,87.494c0,48.36,39.134,87.494,87.494,87.494h63.632v-1.511       C117.455,340.479,86.609,304.895,86.609,261.976z"/>
					<path style="fill:#00ACF0;" d="M214.589,184.425c5.77-63.411,50.774-115.427,110.509-131.771       c-12.653-3.439-25.9-5.435-39.639-5.435c-78.494,0-142.968,59.919-150.31,136.484c11.74-5.848,24.935-9.22,38.953-9.22       C188.739,174.482,202.499,178.141,214.589,184.425z"/>
				</g>
				<rect x="158.195" y="246.068" style="fill:#FF9901;" width="39.77" height="214.758"/>
			</g>
		</g>
	</g>
	<g>
		<g id="XMLID_73_">
			<g>
				<g>
					<path style="fill:#231F20;" d="M444.485,200.347c0.02-0.644,0.031-1.293,0.031-1.95c0-87.467-71.159-158.626-158.626-158.626       c-36.435,0-72.018,12.672-100.194,35.682l9.488,11.618c25.505-20.829,57.719-32.3,90.706-32.3       c79.195,0,143.626,64.43,143.626,143.626c0,1.849-0.794,15.071-0.794,15.071l7.121,0.741       c32.67,3.397,57.306,30.794,57.306,63.729c0,35.337-28.749,64.086-64.087,64.086H372.93v-63.632H253.62v-39.77H151.126v103.402       H94.994C50.885,342.022,15,306.137,15,262.028s35.885-79.994,79.994-79.994c12.955,0,25.412,3.061,37.027,9.098l9.916,5.153       l1.013-11.128c2.863-31.458,15.696-60.436,37.112-83.802L169.004,91.22c-21.292,23.229-34.903,51.489-39.717,82.248       c-10.948-4.228-22.628-6.434-34.292-6.434C42.614,167.034,0,209.648,0,262.028s42.614,94.994,94.994,94.994h56.132v111.356       H372.93v-63.178h-15v48.178H166.126V253.621h72.494v24.77h-56.132v15H357.93v87.948h15v-24.316h56.132       c43.608,0,79.087-35.478,79.087-79.086C508.149,239.712,481.243,207.531,444.485,200.347z"/>
					<rect x="238.167" y="421.563" style="fill:#231F20;" width="15.908" height="15"/>
					<rect x="325.661" y="310.207" style="fill:#231F20;" width="15.907" height="15"/>
					<rect x="301.798" y="79.541" style="fill:#231F20;" width="15.908" height="15"/>
					<rect x="317.707" y="95.448" style="fill:#231F20;" width="15.908" height="15"/>
					<rect x="87.04" y="310.207" style="fill:#231F20;" width="15.908" height="15"/>
				</g>
				<g>
					<polygon style="fill:#FFFFFF;" points="197.942,397.247 182.942,397.247 182.942,436.563 222.258,436.563 222.258,421.563        197.942,421.563      "/>
					<rect x="269.982" y="421.563" style="fill:#FFFFFF;" width="15.908" height="15"/>
					<rect x="325.661" y="342.022" style="fill:#FFFFFF;" width="15.907" height="15"/>
					<path style="fill:#FFFFFF;" d="M285.89,94.541v-15c-61.151,0-110.902,49.75-110.902,110.902h15       C189.988,137.562,233.01,94.541,285.89,94.541z"/>
					<rect x="118.856" y="310.207" style="fill:#FFFFFF;" width="15.908" height="15"/>
					<polygon style="fill:#FFFFFF;" points="240.817,161.277 251.423,171.884 262.482,160.825 262.482,230.212 277.482,230.212        277.482,160.825 288.541,171.884 299.148,161.277 269.982,132.112      "/>
					<polygon style="fill:#FFFFFF;" points="362.78,235.516 352.172,224.909 341.115,235.967 341.115,166.581 326.115,166.581        326.115,235.968 315.056,224.909 304.449,235.516 333.615,264.681      "/>
				</g>
			</g>
		</g>
	</g>
</g>















</svg>
